<svg version="1.1" id="Layer_1" xmlns="http://www.w3.org/2000/svg" xmlns:xlink="http://www.w3.org/1999/xlink" x="0px" y="0px"
	 width="100%" viewBox="0 0 541 354" enable-background="new 0 0 541 354" xml:space="preserve">
<path fill="#FEFFFE" opacity="1.000000" stroke="none" 
	d="
M406.000000,355.000000 
	C270.704315,355.000000 135.908600,355.000000 1.056454,355.000000 
	C1.056454,237.070602 1.056454,119.141159 1.056454,1.105860 
	C181.212372,1.105860 361.424805,1.105860 541.818604,1.105860 
	C541.818604,118.999763 541.818604,236.999863 541.818604,355.000000 
	C496.807770,355.000000 451.653900,355.000000 406.000000,355.000000 
M230.127060,155.072250 
	C227.129623,155.260071 224.132172,155.447891 220.418167,155.356857 
	C218.954788,155.613800 217.491394,155.870743 215.104782,156.056229 
	C211.450836,156.297226 207.796890,156.538239 203.542801,156.483322 
	C202.703720,156.694534 201.864624,156.905762 200.095917,157.061325 
	C196.110306,157.339462 192.124680,157.617599 187.542267,157.614395 
	C186.703720,157.784256 185.865158,157.954132 184.103989,158.058624 
	C180.457977,158.292267 176.811981,158.525909 172.462616,158.452927 
	C171.049194,158.646683 169.635773,158.840439 168.222351,159.034210 
	C168.276016,159.370255 168.329697,159.706299 168.383362,160.042343 
	C169.923508,160.042343 171.463654,160.042343 173.834137,160.218307 
	C189.685501,161.165390 205.539413,162.072327 221.387070,163.077850 
	C228.471924,163.527374 235.544235,164.174820 242.719620,165.673233 
	C241.935303,171.581161 241.150970,177.489090 240.287247,183.995041 
	C244.904388,183.995041 249.193207,183.995041 253.482040,183.995041 
	C257.796417,183.995041 262.110779,183.995041 267.525909,183.995041 
	C256.561523,193.239258 253.890747,203.068405 259.477173,210.370743 
	C264.062805,216.364853 273.705353,217.886658 280.602264,212.565399 
	C284.301971,209.710922 287.278107,205.213425 289.134460,200.843018 
	C291.809021,194.546188 288.244354,189.211273 283.234558,184.293732 
	C303.925354,184.293732 323.619476,184.293732 343.602753,184.293732 
	C332.907593,195.593094 330.903015,204.346985 337.214203,211.230286 
	C342.489258,216.983536 352.881042,217.500244 359.348206,211.342072 
	C362.638000,208.209473 365.119049,203.625092 366.495300,199.235916 
	C368.268890,193.579605 364.935944,188.823120 359.954041,184.058044 
	C367.395020,184.058044 373.603333,184.058044 380.080536,184.058044 
	C380.567444,180.132950 380.985779,176.760330 381.500061,172.614594 
	C338.305206,172.614594 295.793915,172.614594 252.770706,172.614594 
	C253.338120,169.585175 253.760696,167.329086 255.088898,165.023697 
	C298.574493,164.990234 342.060150,164.920425 385.545563,164.993103 
	C388.984222,164.998856 390.851929,164.178009 392.247009,160.750763 
	C403.850281,132.245834 415.680450,103.833336 427.416504,75.382339 
	C427.879120,74.260803 428.083649,73.032784 428.555054,71.322319 
	C426.452484,71.322319 424.981567,71.321999 423.510620,71.322372 
	C397.519318,71.328957 371.527985,71.337296 345.536682,71.341721 
	C326.709198,71.344925 307.881073,71.275055 289.055450,71.462639 
	C287.417480,71.478958 284.923431,72.814636 284.361847,74.172333 
	C283.402649,76.491211 283.660065,79.313339 283.339539,82.613419 
	C326.384644,82.613419 369.099091,82.613419 411.888397,82.613419 
	C411.888397,83.929436 412.086884,84.657028 411.859802,85.209763 
	C402.883209,107.057411 393.952271,128.925140 384.686218,150.649841 
	C383.998718,152.261673 380.890991,153.689850 378.869629,153.743530 
	C367.547943,154.044174 356.214264,153.923416 344.884796,153.895874 
	C315.230530,153.823746 285.576355,153.725418 255.825775,152.701263 
	C259.355865,126.001434 262.880280,99.300842 266.420197,72.602318 
	C267.261292,66.258614 268.154419,59.921814 269.063354,53.291927 
	C246.020172,49.756466 223.738708,46.337868 200.948914,42.841286 
	C200.493881,46.853111 200.111862,50.221054 199.723785,53.642483 
	C200.993286,53.916340 201.621262,54.085079 202.260010,54.184738 
	C218.841553,56.771797 235.426331,59.338299 252.003922,61.950436 
	C253.982437,62.262192 256.828644,61.780552 256.320618,65.259041 
	C255.218185,72.807671 254.003632,80.339912 251.923187,87.882164 
	C223.008865,89.395737 194.094528,90.909302 164.347916,92.156799 
	C162.119904,92.287804 159.891891,92.418816 157.663879,92.549820 
	C157.695801,92.996010 157.727707,93.442200 157.759628,93.888390 
	C160.193588,93.888390 162.627533,93.888390 165.887024,93.993225 
	C179.345352,94.676819 192.806854,95.304085 206.261185,96.058968 
	C221.369003,96.906624 236.470383,97.869583 251.687698,99.687912 
	C251.069183,103.084793 250.450684,106.481667 248.935150,109.901268 
	C239.031296,110.568459 229.127457,111.235641 218.612976,111.572670 
	C217.748474,111.764397 216.883987,111.956131 215.091553,112.122017 
	C211.136429,112.366272 207.181305,112.610535 202.614990,112.513924 
	C201.748886,112.717873 200.882797,112.921822 199.089828,113.095840 
	C195.134949,113.322166 191.180084,113.548492 186.557968,113.410439 
	C185.379120,113.658730 184.200256,113.907021 182.246017,114.129364 
	C181.214890,114.198433 180.183762,114.267502 178.365875,114.092735 
	C176.762589,114.337273 175.159317,114.581810 173.556030,114.826347 
	C173.623123,115.185310 173.690231,115.544281 173.757324,115.903252 
	C175.522751,115.903252 177.288193,115.903252 179.915909,115.999634 
	C197.954025,117.064079 215.996185,118.066040 234.027603,119.233925 
	C238.950226,119.552757 243.840561,120.370255 248.742462,121.750336 
	C248.112686,125.139091 247.482910,128.527847 245.939240,131.925339 
	C210.373596,133.449875 174.807953,134.974411 138.349609,136.187057 
	C134.970840,136.187057 131.592072,136.187057 128.213287,136.187057 
	C128.230942,136.757965 128.248596,137.328873 128.266251,137.899780 
	C131.866470,137.899780 135.466690,137.899780 139.928818,137.984360 
	C157.691040,138.707382 175.456726,139.355560 193.214523,140.174713 
	C210.635101,140.978317 228.047653,141.955811 245.660385,143.747360 
	C245.079559,147.194778 244.498734,150.642212 243.050980,154.098923 
	C240.746567,154.300705 238.442169,154.502502 235.438705,154.375229 
	C233.970444,154.635574 232.502167,154.895905 230.127060,155.072250 
M419.769836,277.024658 
	C419.074341,281.004852 418.378845,284.985077 417.686401,288.947601 
	C428.491699,290.787628 428.821136,290.573456 430.588806,281.112091 
	C430.833038,279.804901 430.731018,278.349091 431.292694,277.210419 
	C431.781250,276.220062 432.909698,275.020996 433.881897,274.895721 
	C436.403656,274.570740 438.995117,274.786621 441.956390,274.786621 
	C441.181793,280.074188 440.540955,284.448822 439.906036,288.783142 
	C449.710083,291.109467 450.765015,290.627808 452.337036,281.542511 
	C452.952728,277.984161 451.917145,274.124207 452.626648,270.601624 
	C453.748810,265.030243 455.804718,259.653351 457.277710,254.143936 
	C458.271362,250.427353 456.498993,248.177628 452.773438,248.111191 
	C443.639435,247.948334 434.500580,248.057968 424.890961,248.057968 
	C423.212128,257.594788 421.576874,266.884125 419.769836,277.024658 
M379.301270,282.033936 
	C380.643982,274.364380 386.272339,279.392944 390.475433,277.398987 
	C389.842896,282.018372 389.363342,285.520599 388.887238,288.997650 
	C399.926392,290.637238 400.019196,290.575928 401.712921,280.758850 
	C401.967285,279.284515 402.176941,277.802490 402.433533,276.328552 
	C404.046417,267.063629 405.666718,257.800018 407.369751,248.048218 
	C400.252808,248.048218 393.791504,248.185303 387.337921,248.020630 
	C372.328003,247.637589 373.620728,249.174850 371.452759,261.186981 
	C369.784119,270.432587 368.261414,279.704559 366.675903,288.952454 
	C377.499268,290.832672 378.215759,290.456451 379.301270,282.033936 
M325.602570,93.026138 
	C320.230103,92.919701 314.528320,92.298050 312.676819,99.269829 
	C311.871185,102.303352 311.454865,105.450783 311.013702,108.567986 
	C310.433624,112.667015 312.161316,115.651489 315.742950,117.632355 
	C319.667084,119.802643 323.704590,121.803764 327.433716,124.270241 
	C328.652008,125.076027 329.931793,127.300522 329.659943,128.542801 
	C329.033508,131.405502 328.167358,135.419296 326.119049,136.468613 
	C323.439606,137.841217 319.526154,136.804962 315.930237,136.804962 
	C315.930237,134.021240 315.930237,132.133102 315.930237,130.078720 
	C314.750336,130.078720 313.926270,130.087738 313.102448,130.077286 
	C306.649536,129.995438 305.750916,131.053528 305.575378,138.951157 
	C305.483795,143.072067 307.600037,144.851486 312.888428,144.915375 
	C318.211609,144.979675 323.536407,144.967072 328.859955,144.924332 
	C333.455902,144.887451 336.408508,142.586960 337.412506,138.113235 
	C338.174988,134.715698 338.504181,131.220856 339.267914,127.823654 
	C340.431519,122.647682 338.511871,119.149948 333.938293,116.752876 
	C330.113922,114.748482 326.123260,112.903816 322.738495,110.297249 
	C321.422516,109.283852 321.115509,106.352318 321.219147,104.339317 
	C321.278015,103.195068 322.988495,101.355370 324.142456,101.197472 
	C327.325592,100.761925 330.607330,101.046867 334.139862,101.046867 
	C333.889130,103.737862 333.713074,105.627434 333.538422,107.502121 
	C342.967590,108.674438 343.670135,108.069077 344.138275,99.551201 
	C344.382843,95.101837 342.439850,93.022911 338.049896,93.042259 
	C334.223480,93.059120 330.396851,93.032448 325.602570,93.026138 
M73.837257,254.894257 
	C74.322189,256.445038 74.807114,257.995819 75.376839,259.817749 
	C77.436264,259.817749 79.602539,259.626038 81.723457,259.854797 
	C87.379204,260.464783 86.701027,256.172394 87.048492,252.934128 
	C87.454056,249.154358 84.958115,248.057419 81.695694,248.053040 
	C74.699600,248.043671 67.677338,247.701294 60.721943,248.231689 
	C58.367645,248.411224 55.238659,250.299042 54.149559,252.316360 
	C52.656570,255.081772 52.074905,258.794556 52.437756,261.947662 
	C52.682671,264.075928 54.848358,266.562225 56.834457,267.779327 
	C60.052917,269.751617 63.749390,271.074768 67.391685,272.189545 
	C71.421616,273.422913 71.683136,275.918854 71.074554,279.466675 
	C70.303810,283.959839 66.991302,283.488312 64.227974,282.941162 
	C62.424526,282.584045 60.928207,280.675903 59.294308,279.462555 
	C59.563816,278.929932 59.833328,278.397278 60.102837,277.864624 
	C57.958412,277.864624 55.775227,278.125000 53.677296,277.812683 
	C48.656620,277.065277 48.479610,280.470337 48.066093,283.876495 
	C47.579014,287.888580 49.874882,289.386566 53.316059,289.511536 
	C58.473404,289.698792 63.640392,289.659393 68.803162,289.650146 
	C80.262840,289.629639 81.374100,288.625427 82.893600,277.130890 
	C82.959068,276.635651 82.961121,276.128510 83.065125,275.642395 
	C84.040764,271.082458 82.120529,268.394867 77.818207,266.876129 
	C74.059837,265.549408 70.295357,264.097839 66.822678,262.178345 
	C65.547569,261.473541 64.241982,259.079865 64.522690,257.801941 
	C64.795509,256.559937 66.963432,255.431717 68.521523,254.867142 
	C69.843788,254.388031 71.483185,254.784103 73.837257,254.894257 
M267.239960,268.931519 
	C271.731750,262.213348 276.223541,255.495209 280.818939,248.622070 
	C273.493683,246.835663 268.172485,247.945282 264.829193,255.045105 
	C262.882507,259.179138 259.707672,262.734833 257.085449,266.550720 
	C256.753174,266.339172 256.420898,266.127625 256.088623,265.916077 
	C257.079376,260.119507 258.070129,254.322937 259.143158,248.045029 
	C255.676865,248.045029 252.856583,247.858902 250.084717,248.143860 
	C249.086487,248.246490 247.532333,249.355682 247.370682,250.218811 
	C244.963959,263.069519 242.748505,275.956055 240.406342,289.298401 
	C242.682312,289.410156 244.506454,289.320801 246.263992,289.621094 
	C250.691666,290.377655 252.504700,288.441132 252.946716,284.146545 
	C253.360825,280.123352 254.356812,276.160065 255.096710,272.170380 
	C257.882874,276.621857 259.381287,281.282410 261.165253,285.830994 
	C261.695923,287.184113 262.894623,289.064667 264.019012,289.243103 
	C267.026794,289.720367 270.160248,289.405701 273.858063,289.405701 
	C271.472504,282.431763 269.289337,276.049469 267.239960,268.931519 
M316.681519,281.893616 
	C315.712982,288.018768 316.746460,289.414276 322.941620,289.521240 
	C329.925049,289.641846 336.929230,289.201019 343.893280,289.578552 
	C348.694702,289.838867 350.164093,287.981964 349.537476,282.989380 
	C342.560791,282.989380 335.665253,282.989380 328.049805,282.989380 
	C329.704681,273.840637 331.165222,265.387665 332.856354,256.981110 
	C333.032898,256.103455 334.510284,254.995361 335.495483,254.870071 
	C337.905975,254.563583 340.381653,254.770035 343.303894,254.770035 
	C342.752502,258.615906 342.292053,261.827362 341.836731,265.003235 
	C351.737579,267.260132 352.823975,266.624786 354.562378,257.819183 
	C354.787445,256.679077 354.871094,255.510956 355.099579,254.371719 
	C355.964081,250.061066 354.085449,248.052292 349.825226,248.044540 
	C342.839264,248.031830 335.853271,248.043365 328.867279,248.037888 
	C324.465607,248.034454 322.114532,250.479752 321.385712,254.568436 
	C319.813446,263.389099 318.361420,272.231171 316.681519,281.893616 
M168.472748,271.931061 
	C172.235123,271.684052 177.464401,273.563568 176.459488,265.708740 
	C171.957657,265.708740 167.414886,265.708740 162.213165,265.708740 
	C162.959610,261.588867 163.559875,258.275848 164.198746,254.749664 
	C168.738647,254.749664 172.743027,254.499695 176.702866,254.812866 
	C181.666321,255.205444 183.258179,253.038040 182.527756,248.020294 
	C175.283524,248.020294 168.145920,247.990662 161.008713,248.029694 
	C155.331604,248.060730 153.205688,249.903305 152.245255,255.429062 
	C150.678833,264.441254 149.106598,273.452515 147.527374,282.462463 
	C146.626633,287.601440 147.818420,289.343903 153.023514,289.527039 
	C159.012985,289.737793 165.029327,289.334869 171.007446,289.670868 
	C175.652588,289.931915 176.856720,287.804840 176.376755,283.084625 
	C170.822723,283.084625 165.271347,283.084625 159.750015,283.084625 
	C159.652725,272.723999 160.214142,271.971008 168.472748,271.931061 
M206.995422,248.038086 
	C202.651718,248.163345 200.390472,250.486267 199.674774,254.693436 
	C198.088211,264.019989 196.399048,273.329071 194.751740,282.645294 
	C193.883514,287.555542 194.934113,289.153900 199.895706,289.367920 
	C206.036880,289.632843 212.208633,289.279755 218.340286,289.645111 
	C223.110992,289.929352 223.990601,287.547485 223.593277,283.037476 
	C217.958786,283.037476 212.400497,283.037476 206.499268,283.037476 
	C206.710205,280.936401 206.907608,279.480988 206.993546,278.019043 
	C207.259781,273.489929 209.029800,271.008698 214.144821,271.856537 
	C216.880920,272.310059 219.754044,271.937042 222.887344,271.937042 
	C223.314056,269.834320 223.679901,268.031586 224.178116,265.576538 
	C218.925888,265.576538 214.511627,265.576538 209.415955,265.576538 
	C210.106155,261.645050 210.687363,258.334473 211.318100,254.741669 
	C215.788879,254.741669 219.785812,254.464325 223.727600,254.812088 
	C228.629410,255.244537 230.506226,253.307724 229.668625,248.035126 
	C222.456406,248.035126 215.175430,248.035126 206.995422,248.038086 
M101.571579,270.815643 
	C100.880798,274.738129 100.192253,278.660980 99.498703,282.582977 
	C98.609627,287.610535 99.862778,289.386536 105.105927,289.544525 
	C111.582985,289.739716 118.076080,289.403351 124.553101,289.599152 
	C129.210815,289.739929 130.193130,287.515625 129.393005,282.960327 
	C123.360405,282.960327 117.469101,282.960327 111.003128,282.960327 
	C113.095528,271.091095 115.070328,259.889008 117.160645,248.031586 
	C114.903778,248.031586 113.100800,248.197937 111.339386,247.998062 
	C107.269142,247.536209 104.930161,248.468597 104.568733,253.292770 
	C104.149185,258.892731 102.752434,264.419525 101.571579,270.815643 
M483.305481,256.352478 
	C481.458405,267.234222 479.611328,278.115967 477.704437,289.350128 
	C480.059265,289.472412 481.721344,289.410309 483.331268,289.670563 
	C487.939270,290.415527 489.675568,288.565033 490.249237,283.893158 
	C491.280365,275.496216 493.234955,267.216797 494.528534,258.845734 
	C494.998871,255.802155 496.092255,254.297913 499.291260,254.764832 
	C504.489014,255.523468 505.530304,252.728195 504.874664,248.233261 
	C495.247467,248.233261 485.816589,248.233261 476.093140,248.233261 
	C475.694580,250.264191 475.327118,252.136658 474.933472,254.142639 
	C478.057800,254.633179 480.619720,255.035416 483.305481,256.352478 
z"/>
<path fill="#115C10" opacity="1.000000" stroke="none" 
	d="
M243.917923,154.089630 
	C244.498734,150.642212 245.079559,147.194778 245.743576,142.981079 
	C246.168884,138.782059 246.511002,135.349335 246.853119,131.916595 
	C247.482910,128.527847 248.112686,125.139091 248.833344,120.944511 
	C249.226883,116.718643 249.529526,113.298592 249.832184,109.878548 
	C250.450684,106.481667 251.069183,103.084793 251.785797,98.907715 
	C252.200912,94.711296 252.517929,91.295074 252.834930,87.878860 
	C254.003632,80.339912 255.218185,72.807671 256.320618,65.259041 
	C256.828644,61.780552 253.982437,62.262192 252.003922,61.950436 
	C235.426331,59.338299 218.841553,56.771797 202.260010,54.184738 
	C201.621262,54.085079 200.993286,53.916340 199.723785,53.642483 
	C200.111862,50.221054 200.493881,46.853111 200.948914,42.841286 
	C223.738708,46.337868 246.020172,49.756466 269.063354,53.291927 
	C268.154419,59.921814 267.261292,66.258614 266.420197,72.602318 
	C262.880280,99.300842 259.355865,126.001434 255.763855,153.508072 
	C255.195724,157.900925 254.689514,161.486954 254.183273,165.072998 
	C253.760696,167.329086 253.338120,169.585175 252.770706,172.614594 
	C295.793915,172.614594 338.305206,172.614594 381.500061,172.614594 
	C380.985779,176.760330 380.567444,180.132950 380.080536,184.058044 
	C373.603333,184.058044 367.395020,184.058044 359.954041,184.058044 
	C364.935944,188.823120 368.268890,193.579605 366.495300,199.235916 
	C365.119049,203.625092 362.638000,208.209473 359.348206,211.342072 
	C352.881042,217.500244 342.489258,216.983536 337.214203,211.230286 
	C330.903015,204.346985 332.907593,195.593094 343.602753,184.293732 
	C323.619476,184.293732 303.925354,184.293732 283.234558,184.293732 
	C288.244354,189.211273 291.809021,194.546188 289.134460,200.843018 
	C287.278107,205.213425 284.301971,209.710922 280.602264,212.565399 
	C273.705353,217.886658 264.062805,216.364853 259.477173,210.370743 
	C253.890747,203.068405 256.561523,193.239258 267.525909,183.995041 
	C262.110779,183.995041 257.796417,183.995041 253.482040,183.995041 
	C249.193207,183.995041 244.904388,183.995041 240.287247,183.995041 
	C241.150970,177.489090 241.935303,171.581161 242.814117,164.876373 
	C243.245041,160.749557 243.581482,157.419586 243.917923,154.089630 
z"/>
<path fill="#25C723" opacity="1.000000" stroke="none" 
	d="
M254.636093,165.048340 
	C254.689514,161.486954 255.195724,157.900925 255.812042,153.976212 
	C285.576355,153.725418 315.230530,153.823746 344.884796,153.895874 
	C356.214264,153.923416 367.547943,154.044174 378.869629,153.743530 
	C380.890991,153.689850 383.998718,152.261673 384.686218,150.649841 
	C393.952271,128.925140 402.883209,107.057411 411.859802,85.209763 
	C412.086884,84.657028 411.888397,83.929436 411.888397,82.613419 
	C369.099091,82.613419 326.384644,82.613419 283.339539,82.613419 
	C283.660065,79.313339 283.402649,76.491211 284.361847,74.172333 
	C284.923431,72.814636 287.417480,71.478958 289.055450,71.462639 
	C307.881073,71.275055 326.709198,71.344925 345.536682,71.341721 
	C371.527985,71.337296 397.519318,71.328957 423.510620,71.322372 
	C424.981567,71.321999 426.452484,71.322319 428.555054,71.322319 
	C428.083649,73.032784 427.879120,74.260803 427.416504,75.382339 
	C415.680450,103.833336 403.850281,132.245834 392.247009,160.750763 
	C390.851929,164.178009 388.984222,164.998856 385.545563,164.993103 
	C342.060150,164.920425 298.574493,164.990234 254.636093,165.048340 
z"/>
<path fill="#176017" opacity="1.000000" stroke="none" 
	d="
M419.855713,276.599060 
	C421.576874,266.884125 423.212128,257.594788 424.890961,248.057968 
	C434.500580,248.057968 443.639435,247.948334 452.773438,248.111191 
	C456.498993,248.177628 458.271362,250.427353 457.277710,254.143936 
	C455.804718,259.653351 453.748810,265.030243 452.626648,270.601624 
	C451.917145,274.124207 452.952728,277.984161 452.337036,281.542511 
	C450.765015,290.627808 449.710083,291.109467 439.906036,288.783142 
	C440.540955,284.448822 441.181793,280.074188 441.956390,274.786621 
	C438.995117,274.786621 436.403656,274.570740 433.881897,274.895721 
	C432.909698,275.020996 431.781250,276.220062 431.292694,277.210419 
	C430.731018,278.349091 430.833038,279.804901 430.588806,281.112091 
	C428.821136,290.573456 428.491699,290.787628 417.686401,288.947601 
	C418.378845,284.985077 419.074341,281.004852 419.855713,276.599060 
M445.053711,259.101074 
	C445.053711,257.727356 445.053711,256.353638 445.053711,255.135239 
	C441.369415,255.135239 438.310425,255.135239 435.176666,255.135239 
	C434.412415,259.508667 433.713989,263.505402 433.018707,267.484070 
	C442.411255,269.295044 442.866638,269.023102 444.678864,260.957214 
	C444.751373,260.634583 444.834869,260.314392 445.053711,259.101074 
z"/>
<path fill="#186017" opacity="1.000000" stroke="none" 
	d="
M379.205505,282.451660 
	C378.215759,290.456451 377.499268,290.832672 366.675903,288.952454 
	C368.261414,279.704559 369.784119,270.432587 371.452759,261.186981 
	C373.620728,249.174850 372.328003,247.637589 387.337921,248.020630 
	C393.791504,248.185303 400.252808,248.048218 407.369751,248.048218 
	C405.666718,257.800018 404.046417,267.063629 402.433533,276.328552 
	C402.176941,277.802490 401.967285,279.284515 401.712921,280.758850 
	C400.019196,290.575928 399.926392,290.637238 388.887238,288.997650 
	C389.363342,285.520599 389.842896,282.018372 390.475433,277.398987 
	C386.272339,279.392944 380.643982,274.364380 379.205505,282.451660 
M385.524597,271.818848 
	C387.687134,271.196716 391.356201,271.064026 391.745514,269.865784 
	C393.251801,265.229462 393.712769,260.253510 394.560425,255.419174 
	C384.818909,253.530090 384.438599,253.784073 382.855255,262.705353 
	C382.507965,264.662292 381.709808,266.657623 381.912811,268.550171 
	C382.037567,269.713196 383.668701,270.714630 385.524597,271.818848 
z"/>
<path fill="#165E15" opacity="1.000000" stroke="none" 
	d="
M326.086426,93.025574 
	C330.396851,93.032448 334.223480,93.059120 338.049896,93.042259 
	C342.439850,93.022911 344.382843,95.101837 344.138275,99.551201 
	C343.670135,108.069077 342.967590,108.674438 333.538422,107.502121 
	C333.713074,105.627434 333.889130,103.737862 334.139862,101.046867 
	C330.607330,101.046867 327.325592,100.761925 324.142456,101.197472 
	C322.988495,101.355370 321.278015,103.195068 321.219147,104.339317 
	C321.115509,106.352318 321.422516,109.283852 322.738495,110.297249 
	C326.123260,112.903816 330.113922,114.748482 333.938293,116.752876 
	C338.511871,119.149948 340.431519,122.647682 339.267914,127.823654 
	C338.504181,131.220856 338.174988,134.715698 337.412506,138.113235 
	C336.408508,142.586960 333.455902,144.887451 328.859955,144.924332 
	C323.536407,144.967072 318.211609,144.979675 312.888428,144.915375 
	C307.600037,144.851486 305.483795,143.072067 305.575378,138.951157 
	C305.750916,131.053528 306.649536,129.995438 313.102448,130.077286 
	C313.926270,130.087738 314.750336,130.078720 315.930237,130.078720 
	C315.930237,132.133102 315.930237,134.021240 315.930237,136.804962 
	C319.526154,136.804962 323.439606,137.841217 326.119049,136.468613 
	C328.167358,135.419296 329.033508,131.405502 329.659943,128.542801 
	C329.931793,127.300522 328.652008,125.076027 327.433716,124.270241 
	C323.704590,121.803764 319.667084,119.802643 315.742950,117.632355 
	C312.161316,115.651489 310.433624,112.667015 311.013702,108.567986 
	C311.454865,105.450783 311.871185,102.303352 312.676819,99.269829 
	C314.528320,92.298050 320.230103,92.919701 326.086426,93.025574 
z"/>
<path fill="#196118" opacity="1.000000" stroke="none" 
	d="
M73.409760,254.843597 
	C71.483185,254.784103 69.843788,254.388031 68.521523,254.867142 
	C66.963432,255.431717 64.795509,256.559937 64.522690,257.801941 
	C64.241982,259.079865 65.547569,261.473541 66.822678,262.178345 
	C70.295357,264.097839 74.059837,265.549408 77.818207,266.876129 
	C82.120529,268.394867 84.040764,271.082458 83.065125,275.642395 
	C82.961121,276.128510 82.959068,276.635651 82.893600,277.130890 
	C81.374100,288.625427 80.262840,289.629639 68.803162,289.650146 
	C63.640392,289.659393 58.473404,289.698792 53.316059,289.511536 
	C49.874882,289.386566 47.579014,287.888580 48.066093,283.876495 
	C48.479610,280.470337 48.656620,277.065277 53.677296,277.812683 
	C55.775227,278.125000 57.958412,277.864624 60.102837,277.864624 
	C59.833328,278.397278 59.563816,278.929932 59.294308,279.462555 
	C60.928207,280.675903 62.424526,282.584045 64.227974,282.941162 
	C66.991302,283.488312 70.303810,283.959839 71.074554,279.466675 
	C71.683136,275.918854 71.421616,273.422913 67.391685,272.189545 
	C63.749390,271.074768 60.052917,269.751617 56.834457,267.779327 
	C54.848358,266.562225 52.682671,264.075928 52.437756,261.947662 
	C52.074905,258.794556 52.656570,255.081772 54.149559,252.316360 
	C55.238659,250.299042 58.367645,248.411224 60.721943,248.231689 
	C67.677338,247.701294 74.699600,248.043671 81.695694,248.053040 
	C84.958115,248.057419 87.454056,249.154358 87.048492,252.934128 
	C86.701027,256.172394 87.379204,260.464783 81.723457,259.854797 
	C79.602539,259.626038 77.436264,259.817749 75.376839,259.817749 
	C74.807114,257.995819 74.322189,256.445038 73.409760,254.843597 
z"/>
<path fill="#175F16" opacity="1.000000" stroke="none" 
	d="
M267.173035,269.299377 
	C269.289337,276.049469 271.472504,282.431763 273.858063,289.405701 
	C270.160248,289.405701 267.026794,289.720367 264.019012,289.243103 
	C262.894623,289.064667 261.695923,287.184113 261.165253,285.830994 
	C259.381287,281.282410 257.882874,276.621857 255.096710,272.170380 
	C254.356812,276.160065 253.360825,280.123352 252.946716,284.146545 
	C252.504700,288.441132 250.691666,290.377655 246.263992,289.621094 
	C244.506454,289.320801 242.682312,289.410156 240.406342,289.298401 
	C242.748505,275.956055 244.963959,263.069519 247.370682,250.218811 
	C247.532333,249.355682 249.086487,248.246490 250.084717,248.143860 
	C252.856583,247.858902 255.676865,248.045029 259.143158,248.045029 
	C258.070129,254.322937 257.079376,260.119507 256.088623,265.916077 
	C256.420898,266.127625 256.753174,266.339172 257.085449,266.550720 
	C259.707672,262.734833 262.882507,259.179138 264.829193,255.045105 
	C268.172485,247.945282 273.493683,246.835663 280.818939,248.622070 
	C276.223541,255.495209 271.731750,262.213348 267.173035,269.299377 
z"/>
<path fill="#196018" opacity="1.000000" stroke="none" 
	d="
M316.770874,281.479065 
	C318.361420,272.231171 319.813446,263.389099 321.385712,254.568436 
	C322.114532,250.479752 324.465607,248.034454 328.867279,248.037888 
	C335.853271,248.043365 342.839264,248.031830 349.825226,248.044540 
	C354.085449,248.052292 355.964081,250.061066 355.099579,254.371719 
	C354.871094,255.510956 354.787445,256.679077 354.562378,257.819183 
	C352.823975,266.624786 351.737579,267.260132 341.836731,265.003235 
	C342.292053,261.827362 342.752502,258.615906 343.303894,254.770035 
	C340.381653,254.770035 337.905975,254.563583 335.495483,254.870071 
	C334.510284,254.995361 333.032898,256.103455 332.856354,256.981110 
	C331.165222,265.387665 329.704681,273.840637 328.049805,282.989380 
	C335.665253,282.989380 342.560791,282.989380 349.537476,282.989380 
	C350.164093,287.981964 348.694702,289.838867 343.893280,289.578552 
	C336.929230,289.201019 329.925049,289.641846 322.941620,289.521240 
	C316.746460,289.414276 315.712982,288.018768 316.770874,281.479065 
z"/>
<path fill="#1B621A" opacity="1.000000" stroke="none" 
	d="
M168.011154,271.932129 
	C160.214142,271.971008 159.652725,272.723999 159.750015,283.084625 
	C165.271347,283.084625 170.822723,283.084625 176.376755,283.084625 
	C176.856720,287.804840 175.652588,289.931915 171.007446,289.670868 
	C165.029327,289.334869 159.012985,289.737793 153.023514,289.527039 
	C147.818420,289.343903 146.626633,287.601440 147.527374,282.462463 
	C149.106598,273.452515 150.678833,264.441254 152.245255,255.429062 
	C153.205688,249.903305 155.331604,248.060730 161.008713,248.029694 
	C168.145920,247.990662 175.283524,248.020294 182.527756,248.020294 
	C183.258179,253.038040 181.666321,255.205444 176.702866,254.812866 
	C172.743027,254.499695 168.738647,254.749664 164.198746,254.749664 
	C163.559875,258.275848 162.959610,261.588867 162.213165,265.708740 
	C167.414886,265.708740 171.957657,265.708740 176.459488,265.708740 
	C177.464401,273.563568 172.235123,271.684052 168.011154,271.932129 
z"/>
<path fill="#1A6219" opacity="1.000000" stroke="none" 
	d="
M207.444946,248.036606 
	C215.175430,248.035126 222.456406,248.035126 229.668625,248.035126 
	C230.506226,253.307724 228.629410,255.244537 223.727600,254.812088 
	C219.785812,254.464325 215.788879,254.741669 211.318100,254.741669 
	C210.687363,258.334473 210.106155,261.645050 209.415955,265.576538 
	C214.511627,265.576538 218.925888,265.576538 224.178116,265.576538 
	C223.679901,268.031586 223.314056,269.834320 222.887344,271.937042 
	C219.754044,271.937042 216.880920,272.310059 214.144821,271.856537 
	C209.029800,271.008698 207.259781,273.489929 206.993546,278.019043 
	C206.907608,279.480988 206.710205,280.936401 206.499268,283.037476 
	C212.400497,283.037476 217.958786,283.037476 223.593277,283.037476 
	C223.990601,287.547485 223.110992,289.929352 218.340286,289.645111 
	C212.208633,289.279755 206.036880,289.632843 199.895706,289.367920 
	C194.934113,289.153900 193.883514,287.555542 194.751740,282.645294 
	C196.399048,273.329071 198.088211,264.019989 199.674774,254.693436 
	C200.390472,250.486267 202.651718,248.163345 207.444946,248.036606 
z"/>
<path fill="#2AC827" opacity="1.000000" stroke="none" 
	d="
M246.396179,131.920959 
	C246.511002,135.349335 246.168884,138.782059 245.645248,142.535889 
	C228.047653,141.955811 210.635101,140.978317 193.214523,140.174713 
	C175.456726,139.355560 157.691040,138.707382 139.524628,137.706604 
	C139.261795,137.132111 139.302414,136.822128 139.242310,136.498947 
	C174.807953,134.974411 210.373596,133.449875 246.396179,131.920959 
z"/>
<path fill="#1B621A" opacity="1.000000" stroke="none" 
	d="
M101.675720,270.396851 
	C102.752434,264.419525 104.149185,258.892731 104.568733,253.292770 
	C104.930161,248.468597 107.269142,247.536209 111.339386,247.998062 
	C113.100800,248.197937 114.903778,248.031586 117.160645,248.031586 
	C115.070328,259.889008 113.095528,271.091095 111.003128,282.960327 
	C117.469101,282.960327 123.360405,282.960327 129.393005,282.960327 
	C130.193130,287.515625 129.210815,289.739929 124.553101,289.599152 
	C118.076080,289.403351 111.582985,289.739716 105.105927,289.544525 
	C99.862778,289.386536 98.609627,287.610535 99.498703,282.582977 
	C100.192253,278.660980 100.880798,274.738129 101.675720,270.396851 
z"/>
<path fill="#1A6119" opacity="1.000000" stroke="none" 
	d="
M483.243591,255.895081 
	C480.619720,255.035416 478.057800,254.633179 474.933472,254.142639 
	C475.327118,252.136658 475.694580,250.264191 476.093140,248.233261 
	C485.816589,248.233261 495.247467,248.233261 504.874664,248.233261 
	C505.530304,252.728195 504.489014,255.523468 499.291260,254.764832 
	C496.092255,254.297913 494.998871,255.802155 494.528534,258.845734 
	C493.234955,267.216797 491.280365,275.496216 490.249237,283.893158 
	C489.675568,288.565033 487.939270,290.415527 483.331268,289.670563 
	C481.721344,289.410309 480.059265,289.472412 477.704437,289.350128 
	C479.611328,278.115967 481.458405,267.234222 483.243591,255.895081 
z"/>
<path fill="#2CC829" opacity="1.000000" stroke="none" 
	d="
M252.379059,87.880508 
	C252.517929,91.295074 252.200912,94.711296 251.729233,98.454948 
	C236.470383,97.869583 221.369003,96.906624 206.261185,96.058968 
	C192.806854,95.304085 179.345352,94.676819 165.501160,93.695969 
	C165.224640,93.079277 165.246277,92.753998 165.180206,92.422874 
	C194.094528,90.909302 223.008865,89.395737 252.379059,87.880508 
z"/>
<path fill="#25C622" opacity="1.000000" stroke="none" 
	d="
M249.383667,109.889908 
	C249.529526,113.298592 249.226883,116.718643 248.834976,120.548798 
	C243.840561,120.370255 238.950226,119.552757 234.027603,119.233925 
	C215.996185,118.066040 197.954025,117.064079 179.502365,115.689499 
	C179.110092,115.031776 179.131363,114.684174 179.152618,114.336578 
	C180.183762,114.267502 181.214890,114.198433 182.840927,114.367538 
	C184.698959,114.328751 185.962082,114.051788 187.225204,113.774826 
	C191.180084,113.548492 195.134949,113.322166 199.726044,113.323517 
	C201.316895,113.319054 202.271545,113.086922 203.226181,112.854790 
	C207.181305,112.610535 211.136429,112.366272 215.727875,112.343826 
	C217.317337,112.344704 218.270462,112.123764 219.223602,111.902832 
	C229.127457,111.235641 239.031296,110.568459 249.383667,109.889908 
z"/>
<path fill="#21C51E" opacity="1.000000" stroke="none" 
	d="
M243.484451,154.094269 
	C243.581482,157.419586 243.245041,160.749557 242.765427,164.405975 
	C235.544235,164.174820 228.471924,163.527374 221.387070,163.077850 
	C205.539413,162.072327 189.685501,161.165390 173.445587,159.916199 
	C173.132294,159.334213 173.168610,159.049377 173.165970,158.759552 
	C176.811981,158.525909 180.457977,158.292267 184.731232,158.306732 
	C186.285339,158.335129 187.212204,158.115433 188.139069,157.895737 
	C192.124680,157.617599 196.110306,157.339462 200.732544,157.307678 
	C202.293777,157.295776 203.218353,157.037506 204.142944,156.779236 
	C207.796890,156.538239 211.450836,156.297226 215.797119,156.331268 
	C218.037872,156.282776 219.586304,155.959244 221.134735,155.635712 
	C224.132172,155.447891 227.129623,155.260071 230.809326,155.351562 
	C233.040314,155.322006 234.589035,155.013138 236.137756,154.704285 
	C238.442169,154.502502 240.746567,154.300705 243.484451,154.094269 
z"/>
<path fill="#82DE80" opacity="1.000000" stroke="none" 
	d="
M138.795959,136.343002 
	C139.302414,136.822128 139.261795,137.132111 139.093689,137.664322 
	C135.466690,137.899780 131.866470,137.899780 128.266251,137.899780 
	C128.248596,137.328873 128.230942,136.757965 128.213287,136.187057 
	C131.592072,136.187057 134.970840,136.187057 138.795959,136.343002 
z"/>
<path fill="#77DA75" opacity="1.000000" stroke="none" 
	d="
M164.764069,92.289841 
	C165.246277,92.753998 165.224640,93.079277 165.088394,93.643555 
	C162.627533,93.888390 160.193588,93.888390 157.759628,93.888390 
	C157.727707,93.442200 157.695801,92.996010 157.663879,92.549820 
	C159.891891,92.418816 162.119904,92.287804 164.764069,92.289841 
z"/>
<path fill="#56D154" opacity="1.000000" stroke="none" 
	d="
M172.814301,158.606232 
	C173.168610,159.049377 173.132294,159.334213 173.030426,159.828217 
	C171.463654,160.042343 169.923508,160.042343 168.383362,160.042343 
	C168.329697,159.706299 168.276016,159.370255 168.222351,159.034210 
	C169.635773,158.840439 171.049194,158.646683 172.814301,158.606232 
z"/>
<path fill="#73DB71" opacity="1.000000" stroke="none" 
	d="
M178.759247,114.214661 
	C179.131363,114.684174 179.110092,115.031776 179.071228,115.641312 
	C177.288193,115.903252 175.522751,115.903252 173.757324,115.903252 
	C173.690231,115.544281 173.623123,115.185310 173.556030,114.826347 
	C175.159317,114.581810 176.762589,114.337273 178.759247,114.214661 
z"/>
<path fill="#56D154" opacity="1.000000" stroke="none" 
	d="
M220.776459,155.496277 
	C219.586304,155.959244 218.037872,156.282776 216.258728,156.367004 
	C217.491394,155.870743 218.954788,155.613800 220.776459,155.496277 
z"/>
<path fill="#56D154" opacity="1.000000" stroke="none" 
	d="
M235.788239,154.539764 
	C234.589035,155.013138 233.040314,155.322006 231.262756,155.393555 
	C232.502167,154.895905 233.970444,154.635574 235.788239,154.539764 
z"/>
<path fill="#73DB71" opacity="1.000000" stroke="none" 
	d="
M186.891586,113.592636 
	C185.962082,114.051788 184.698959,114.328751 183.228622,114.380508 
	C184.200256,113.907021 185.379120,113.658730 186.891586,113.592636 
z"/>
<path fill="#56D154" opacity="1.000000" stroke="none" 
	d="
M187.840668,157.755066 
	C187.212204,158.115433 186.285339,158.335129 185.192535,158.339417 
	C185.865158,157.954132 186.703720,157.784256 187.840668,157.755066 
z"/>
<path fill="#56D154" opacity="1.000000" stroke="none" 
	d="
M203.842865,156.631287 
	C203.218353,157.037506 202.293777,157.295776 201.197357,157.335510 
	C201.864624,156.905762 202.703720,156.694534 203.842865,156.631287 
z"/>
<path fill="#73DB71" opacity="1.000000" stroke="none" 
	d="
M202.920593,112.684357 
	C202.271545,113.086922 201.316895,113.319054 200.189484,113.338486 
	C200.882797,112.921822 201.748886,112.717873 202.920593,112.684357 
z"/>
<path fill="#73DB71" opacity="1.000000" stroke="none" 
	d="
M218.918289,111.737747 
	C218.270462,112.123764 217.317337,112.344704 216.191833,112.356750 
	C216.883987,111.956131 217.748474,111.764397 218.918289,111.737747 
z"/>
<path fill="#F6F9F6" opacity="1.000000" stroke="none" 
	d="
M444.983459,259.547058 
	C444.834869,260.314392 444.751373,260.634583 444.678864,260.957214 
	C442.866638,269.023102 442.411255,269.295044 433.018707,267.484070 
	C433.713989,263.505402 434.412415,259.508667 435.176666,255.135239 
	C438.310425,255.135239 441.369415,255.135239 445.053711,255.135239 
	C445.053711,256.353638 445.053711,257.727356 444.983459,259.547058 
z"/>
<path fill="#F5F8F5" opacity="1.000000" stroke="none" 
	d="
M385.074036,271.803711 
	C383.668701,270.714630 382.037567,269.713196 381.912811,268.550171 
	C381.709808,266.657623 382.507965,264.662292 382.855255,262.705353 
	C384.438599,253.784073 384.818909,253.530090 394.560425,255.419174 
	C393.712769,260.253510 393.251801,265.229462 391.745514,269.865784 
	C391.356201,271.064026 387.687134,271.196716 385.074036,271.803711 
z"/>
</svg>